<svg width="79" height="50" viewBox="0 0 79 50" fill="none" xmlns="http://www.w3.org/2000/svg">
<path fill-rule="evenodd" clip-rule="evenodd" d="M2.9 10.9C3.8 10.9 4.5 11.6 4.5 12.5C4.5 13.4 3.8 14.1 2.9 14.1C2 14.1 1.2 13.4 1.2 12.5C1.2 11.6 2 10.9 2.9 10.9ZM21.4 12.4C22.3 12.4 23 13.1 23 14C23 14.9 22.3 15.6 21.4 15.6C20.5 15.6 19.8 14.9 19.8 14C19.8 13.1 20.5 12.4 21.4 12.4ZM30.7 1.4C31.6 1.4 32.3 2.1 32.3 3C32.3 3.9 31.6 4.6 30.7 4.6C29.8 4.6 29.1 3.9 29.1 3C29.1 2.1 29.8 1.4 30.7 1.4ZM10.7 28.5C11.6 28.5 12.3 29.2 12.3 30.1C12.3 31 11.6 31.7 10.7 31.7C9.8 31.7 9.1 31 9.1 30.1C9.1 29.2 9.8 28.5 10.7 28.5ZM51.1 16.3C50.6 16.5 50 16.2 49.8 15.7C49.6 15.2 49.9 14.6 50.4 14.4L50.6 14.3L50.8 14.2C51.3 14 51.9 14.3 52.1 14.9C52.3 15.4 52 16 51.4 16.2C51.4 16.2 51.3 16.2 51.2 16.3H51.1ZM46.3 7.3C45.8 7.5 45.2 7.3 44.9 6.8C44.7 6.3 44.9 5.7 45.4 5.5L45.6 5.4C45.6 5.4 45.7 5.4 45.8 5.3C46.3 5.1 46.9 5.3 47.1 5.9C47.3 6.4 47.1 7 46.5 7.2C46.5 7.2 46.4 7.2 46.3 7.3ZM43.6 15.2H24C23.6 16.2 22.6 16.9 21.4 16.9C19.8 16.9 18.6 15.6 18.6 14.1C18.6 12.6 19.9 11.3 21.4 11.3C22.7 11.3 23.9 12.2 24.2 13.5H46C45.1 13.8 44.2 14.4 43.6 15.2ZM33.5 28.5C33.5 29.1 33.1 29.5 32.6 29.6C32 29.6 31.5 29.2 31.5 28.7C31.5 28.6 31.5 28.4 31.5 28.2C31.5 28.1 31.5 27.9 31.5 27.7C31.5 27.1 31.9 26.7 32.5 26.7C33.1 26.7 33.5 27.1 33.6 27.7C33.6 27.8 33.6 28 33.6 28.2C33.4 28.2 33.5 28.3 33.5 28.5ZM45.7 36.6C45.7 37.1 45.5 37.7 45.1 38.1C44.7 38.5 44.2 38.6 43.7 38.5C42.7 37.5 41.9 36.5 41.1 35.2C40.1 33.5 39.4 31.6 39.1 29.7C38.8 27.8 38.8 25.8 39.1 23.8C39.1 23.7 39.1 23.7 39.1 23.6C39.2 23.2 39.3 22.8 39.5 22.4H18.1L12.2 27.7C11.8 27.4 11.2 27.3 10.7 27.3C9.1 27.3 7.9 28.6 7.9 30.1C7.9 31.7 9.2 32.9 10.7 32.9C12.2 32.9 13.5 31.6 13.5 30.1C13.5 29.8 13.4 29.4 13.3 29.1L18.6 24.4H36.9C36.6 26.3 36.7 28.2 37 30.1C37.4 32.3 38.2 34.4 39.3 36.3C41.9 40.6 46 43.5 50.6 44.7C55.1 45.8 60.1 45.3 64.5 42.7H64.6C68.9 40.1 71.8 36 72.9 31.5C74 27 73.5 22 70.9 17.7V17.6C69.8 15.7 68.4 14.1 66.7 12.8C66.5 12.1 66.8 11.4 67.3 10.9C67.7 10.6 68.2 10.4 68.7 10.4C70.6 11.9 72.2 13.8 73.5 15.9C73.5 16 73.6 16.1 73.7 16.2C76.6 21.2 77.2 26.8 75.9 32C74.6 37.2 71.3 41.8 66.3 44.8C66.2 44.8 66.1 44.9 66 45C60.9 48 55 48.7 49.6 47.3C44.3 45.9 39.5 42.6 36.4 37.5C35.9 36.6 35.4 35.8 35 34.9C34.6 34 34.3 33 34 32.1C33.9 31.6 33.3 31.2 32.7 31.4C32.1 31.5 31.8 32.1 32 32.6C32.3 33.7 32.6 34.7 33.1 35.7C33.5 36.7 34 37.7 34.6 38.6C37.9 44.1 43.3 47.8 49.1 49.2C55 50.7 61.4 49.9 67 46.6C67.1 46.5 67.2 46.5 67.3 46.4C72.7 43.1 76.3 38 77.8 32.3C79.3 26.7 78.6 20.5 75.4 15C75.4 14.9 75.3 14.8 75.2 14.7C72.5 10.3 68.5 7 63.9 5.1C59.5 3.3 54.3 2.9 49.2 4.1C48.6 4.2 48.3 4.8 48.4 5.3C48.5 5.8 49.1 6.2 49.7 6C53.4 5.1 57.2 5.2 60.7 6.1C61.2 6.6 61.4 7.4 61.2 8.1C61 8.6 60.7 9 60.3 9.2C58.5 8.7 56.7 8.4 54.8 8.4C53.3 8.4 51.1 9 50 9H38.2L33 4.4C33.3 3.9 33.5 3.4 33.5 2.8C33.5 1.2 32.2 0 30.7 0C29.1 0 27.9 1.3 27.9 2.8C27.9 4.4 29.2 5.6 30.7 5.6C31 5.6 31.3 5.6 31.5 5.5L37.5 10.8H50.7C52 10.8 53.7 10.4 55.1 10.4C57.4 10.4 59.7 10.9 61.8 11.8C64.8 13.1 67.4 15.4 69.1 18.3V18.4C71.4 22.2 71.9 26.6 70.9 30.6C69.9 34.6 67.3 38.2 63.5 40.5H63.4C60.5 42.2 57.3 42.9 54.2 42.8C53.5 42.5 53 41.8 53.1 41C53.1 40.5 53.4 40.1 53.7 39.8C56.5 40 59.3 39.5 61.9 38C62 37.9 62.1 37.9 62.2 37.8C65.3 35.9 67.3 33 68.2 29.8C69 26.6 68.6 23.1 66.8 20C66.8 19.9 66.7 19.8 66.7 19.8C66.4 19.4 66.2 19 65.8 18.6C65.5 18.2 65.2 17.8 64.8 17.5C64.4 17.1 63.8 17.1 63.3 17.5C62.9 17.9 62.9 18.5 63.3 18.9C63.6 19.2 63.9 19.5 64.1 19.9C64.4 20.2 64.6 20.6 64.8 20.9C64.8 21 64.9 21 64.9 21.1C66.4 23.7 66.8 26.7 66 29.4C65.3 32.1 63.6 34.6 60.9 36.2C60.8 36.2 60.8 36.3 60.7 36.3C58 37.9 54.8 38.3 52 37.5C49.1 36.8 46.6 35 44.9 32.4C44.5 31.7 44.2 31 43.9 30.3C44 29.8 44.4 29.3 45 29.1C45.4 28.9 45.8 28.9 46.2 29.1C46.7 30.9 47.8 32.5 49.4 33.8C49.5 33.9 49.4 33.8 49.5 33.9C51.4 35.3 53.7 35.9 55.9 35.6C58.1 35.3 60.2 34.3 61.8 32.5C62.2 32.1 62.1 31.4 61.7 31.1C61.3 30.7 60.6 30.8 60.3 31.2C59.1 32.6 57.5 33.4 55.8 33.6C54.1 33.8 52.3 33.4 50.8 32.3C50.7 32.2 50.8 32.3 50.7 32.2C49.2 31.1 48.3 29.5 48.1 27.8C47.9 26.1 48.3 24.3 49.4 22.8C49.5 22.7 49.4 22.8 49.4 22.7C50.5 21.2 52.2 20.3 54 20.1C55.8 19.9 57.6 20.3 59.1 21.4C59.2 21.5 59.4 21.6 59.5 21.7C59.6 21.8 59.8 21.9 59.9 22C60.3 22.4 60.9 22.4 61.4 22C61.8 21.6 61.8 21 61.4 20.6C61.2 20.4 61.1 20.3 60.9 20.1C60.7 20 60.6 19.8 60.4 19.7C58.4 18.2 56 17.7 53.8 18C51.5 18.3 49.4 19.5 47.9 21.4C47.8 21.5 47.9 21.4 47.8 21.5C47.5 21.9 47.3 22.3 47 22.7C46.6 22.8 46.2 22.8 45.8 22.7C45.2 22.4 44.9 21.8 44.9 21.2C45.6 20 46.5 18.9 47.6 18C48 17.6 48.1 17 47.7 16.6C47.3 16.2 46.7 16.1 46.3 16.5C43.7 18.6 42.1 21.4 41.6 24.5C41.1 27.5 41.6 30.7 43.3 33.5C44 34.8 44.8 35.7 45.7 36.6ZM2.9 9.7C4.5 9.7 5.7 11 5.7 12.5C5.7 13.1 5.5 13.6 5.3 14L10.1 18.3H38.9L39.4 17.3H41.9C41.2 18.3 40.7 19.2 40.3 20.2H9.5L3.8 15.1C3.5 15.2 3.2 15.3 2.8 15.3C1.2 15.3 0 14 0 12.5C0 10.9 1.3 9.7 2.9 9.7Z" fill="url(#paint0_linear_1306_9)"/>
<defs>
<linearGradient id="paint0_linear_1306_9" x1="54.5527" y1="-0.770686" x2="21.882" y2="49.3621" gradientUnits="userSpaceOnUse">
<stop stop-color="#6871B4"/>
<stop offset="0.4235" stop-color="#6894CA"/>
<stop offset="0.6706" stop-color="#6AB9E0"/>
<stop offset="1" stop-color="#7CC8C8"/>
</linearGradient>
</defs>
</svg>
